<svg xmlns="http://www.w3.org/2000/svg" width="97.64" height="97.64" viewBox="0 0 98 98">
  <path d="M97.52 18.53c-.14-.17-.37-.23-.56-.14-2.92 1.3-6 2.22-9.16 2.77 3.36-2.53 5.86-6.02 7.14-10.03.07-.2 0-.4-.15-.53-.17-.12-.4-.13-.56-.03-3.8 2.24-7.88 3.82-12.18 4.7-3.82-3.95-9.14-6.22-14.65-6.22-11.2 0-20.3 9.12-20.3 20.32 0 1.35.12 2.7.38 4-15.5-.96-30.02-8.4-39.9-20.5-.1-.13-.24-.2-.4-.2-.16.03-.3.12-.38.25-1.8 3.1-2.76 6.62-2.76 10.22 0 6.23 2.83 12.05 7.65 15.9-2.5-.3-4.9-1.1-7.1-2.3-.14-.08-.33-.08-.47 0-.15.1-.24.24-.25.4v.27c0 8.96 5.9 16.82 14.28 19.42-2.2.36-4.5.34-6.75-.1-.16-.03-.33.03-.44.16-.12.13-.16.3-.1.47 2.5 7.85 9.5 13.35 17.63 14.04-6.8 4.96-14.8 7.58-23.3 7.58-1.55 0-3.12-.1-4.66-.27-.22-.02-.44.1-.5.32-.1.22 0 .45.18.58C9.4 85.47 20 88.58 30.9 88.58c35.6 0 56.9-28.93 56.9-56.9 0-.8-.02-1.57-.05-2.34 3.85-2.8 7.15-6.25 9.8-10.23.13-.17.1-.4-.03-.57z"/>
</svg>
